<mxfile host="app.diagrams.net" modified="2024-07-22T12:56:45.592Z" agent="Mozilla/5.0 (Windows NT 10.0; Win64; x64) AppleWebKit/537.36 (KHTML, like Gecko) Chrome/124.0.0.0 YaBrowser/24.6.0.0 Safari/537.36" etag="hosdzM0tSA1I0muz3Y9P" version="24.7.1" type="github">
  <diagram name="Page-1" id="c7488fd3-1785-93aa-aadb-54a6760d102a">
    <mxGraphModel dx="1242" dy="575" grid="1" gridSize="10" guides="1" tooltips="1" connect="1" arrows="1" fold="1" page="1" pageScale="1" pageWidth="1100" pageHeight="850" background="none" math="0" shadow="0">
      <root>
        <mxCell id="0" />
        <mxCell id="1" parent="0" />
        <mxCell id="Q_zp69lY7drZ3QzHUr-w-1" value="Text" style="text;html=1;align=center;verticalAlign=middle;whiteSpace=wrap;rounded=0;" vertex="1" parent="1">
          <mxGeometry x="300" y="80" width="60" height="30" as="geometry" />
        </mxCell>
      </root>
    </mxGraphModel>
  </diagram>
</mxfile>
